<svg xmlns="http://www.w3.org/2000/svg" version="1.1" xmlns:xlink="http://www.w3.org/1999/xlink" xmlns:svgjs="http://svgjs.dev/svgjs" viewBox="0 0 8.418547300992373 7.631423518866301"><g transform="matrix(1,0,0,1,0.6677831719805609,5.8386403468857395)"><rect width="8.418547300992373" height="8.418547300992373" x="-0.6677831719805609" y="-6.232202237948775" fill="#ffffff"></rect><g><path d=" M 1.293 0.05549999999999988 Q 1.3275000000000001 0.05549999999999988 1.359 0.08174999999999977 Q 1.3905 0.10799999999999987 1.3905 0.1529999999999998 Q 1.3905 0.16649999999999987 1.3860000000000001 0.18299999999999983 L 1.0905 1.053 Q 1.0815000000000001 1.0799999999999998 1.05825 1.09425 Q 1.035 1.1084999999999998 1.0095 1.1099999999999999 Q 0.984 1.1099999999999999 0.95925 1.095 Q 0.9345 1.0799999999999998 0.921 1.0514999999999999 L 0.6990000000000001 0.5474999999999999 L 0.7125 0.5564999999999999 L 0.4935 1.0514999999999999 Q 0.48 1.0799999999999998 0.45525 1.095 Q 0.4305 1.1099999999999999 0.405 1.1099999999999999 Q 0.381 1.1084999999999998 0.357 1.09425 Q 0.333 1.0799999999999998 0.324 1.053 L 0.0285 0.18299999999999983 Q 0.024 0.16649999999999987 0.024 0.1529999999999998 Q 0.024 0.10799999999999987 0.05625 0.08174999999999977 Q 0.0885 0.05549999999999988 0.123 0.05549999999999988 Q 0.1515 0.05549999999999988 0.17625 0.07049999999999979 Q 0.201 0.08549999999999991 0.21 0.11399999999999988 L 0.4485 0.8369999999999999 L 0.41550000000000004 0.8354999999999999 L 0.6285000000000001 0.32399999999999984 Q 0.6405 0.2969999999999998 0.663 0.2812499999999999 Q 0.6855 0.26549999999999985 0.714 0.2669999999999999 Q 0.7425 0.26549999999999985 0.765 0.2812499999999999 Q 0.7875 0.2969999999999998 0.798 0.32399999999999984 L 0.993 0.813 L 0.969 0.8279999999999998 L 1.2045000000000001 0.11399999999999988 Q 1.2135 0.08549999999999991 1.239 0.07049999999999979 Q 1.2645 0.05549999999999988 1.293 0.05549999999999988 M 2.2754677734375 0.7094999999999998 Q 2.2754677734375 0.8324999999999998 2.2207177734375003 0.9262499999999999 Q 2.1659677734375 1.0199999999999998 2.0737177734375 1.0724999999999998 Q 1.9814677734375001 1.1249999999999998 1.8674677734375003 1.1249999999999998 Q 1.7534677734375002 1.1249999999999998 1.6612177734375002 1.0724999999999998 Q 1.5689677734375 1.0199999999999998 1.5142177734375002 0.9262499999999999 Q 1.4594677734375001 0.8324999999999998 1.4594677734375001 0.7094999999999998 Q 1.4594677734375001 0.5864999999999999 1.5142177734375002 0.4927499999999999 Q 1.5689677734375 0.3989999999999999 1.6612177734375002 0.3457499999999999 Q 1.7534677734375002 0.29249999999999987 1.8674677734375003 0.29249999999999987 Q 1.9814677734375001 0.29249999999999987 2.0737177734375 0.3457499999999999 Q 2.1659677734375 0.3989999999999999 2.2207177734375003 0.4927499999999999 Q 2.2754677734375 0.5864999999999999 2.2754677734375 0.7094999999999998 M 2.0954677734375 0.7094999999999998 Q 2.0954677734375 0.6329999999999998 2.0647177734375 0.5767499999999999 Q 2.0339677734375003 0.5204999999999999 1.9822177734375002 0.4889999999999999 Q 1.9304677734375 0.4574999999999999 1.8674677734375003 0.4574999999999999 Q 1.8044677734375 0.4574999999999999 1.7527177734375001 0.4889999999999999 Q 1.7009677734375002 0.5204999999999999 1.6702177734375 0.5767499999999999 Q 1.6394677734375 0.6329999999999998 1.6394677734375 0.7094999999999998 Q 1.6394677734375 0.7844999999999999 1.6702177734375 0.8407499999999999 Q 1.7009677734375002 0.8969999999999999 1.7527177734375001 0.9284999999999999 Q 1.8044677734375 0.9599999999999999 1.8674677734375003 0.9599999999999999 Q 1.9304677734375 0.9599999999999999 1.9822177734375002 0.9284999999999999 Q 2.0339677734375003 0.8969999999999999 2.0647177734375 0.8407499999999999 Q 2.0954677734375 0.7844999999999999 2.0954677734375 0.7094999999999998 M 2.5304882812500002 1.1099999999999999 Q 2.49148828125 1.1099999999999999 2.4659882812500005 1.0837499999999998 Q 2.4404882812500004 1.0574999999999999 2.4404882812500004 1.0185 L 2.4404882812500004 0.3989999999999999 Q 2.4404882812500004 0.3599999999999999 2.4659882812500005 0.3337499999999999 Q 2.49148828125 0.3074999999999999 2.5304882812500002 0.3074999999999999 Q 2.5694882812500004 0.3074999999999999 2.59498828125 0.3337499999999999 Q 2.62048828125 0.3599999999999999 2.62048828125 0.3989999999999999 L 2.62048828125 0.5399999999999998 L 2.60998828125 0.4394999999999999 Q 2.6264882812500003 0.40349999999999986 2.6527382812500004 0.3757499999999998 Q 2.67898828125 0.34799999999999986 2.71198828125 0.3292499999999998 Q 2.7449882812500004 0.3104999999999999 2.78248828125 0.3014999999999999 Q 2.81998828125 0.29249999999999987 2.85748828125 0.29249999999999987 Q 2.90248828125 0.29249999999999987 2.9332382812500004 0.31799999999999984 Q 2.9639882812500002 0.3434999999999998 2.9639882812500002 0.3779999999999999 Q 2.9639882812500002 0.4274999999999999 2.93848828125 0.4492499999999998 Q 2.9129882812500005 0.47099999999999986 2.8829882812500003 0.47099999999999986 Q 2.85448828125 0.47099999999999986 2.83123828125 0.4604999999999999 Q 2.80798828125 0.44999999999999984 2.7779882812500003 0.44999999999999984 Q 2.75098828125 0.44999999999999984 2.7232382812500004 0.4627499999999999 Q 2.6954882812500003 0.4754999999999998 2.6722382812500003 0.5024999999999998 Q 2.6489882812500003 0.5294999999999999 2.63473828125 0.5692499999999998 Q 2.62048828125 0.6089999999999999 2.62048828125 0.6629999999999998 L 2.62048828125 1.0185 Q 2.62048828125 1.0574999999999999 2.59498828125 1.0837499999999998 Q 2.5694882812500004 1.1099999999999999 2.5304882812500002 1.1099999999999999 M 3.2115197753906255 1.1099999999999999 Q 3.1725197753906254 1.1099999999999999 3.1470197753906253 1.0837499999999998 Q 3.121519775390625 1.0574999999999999 3.121519775390625 1.0185 L 3.121519775390625 0.09149999999999991 Q 3.121519775390625 0.05249999999999977 3.1470197753906253 0.026249999999999885 Q 3.1725197753906254 -2.220446049250313e-16 3.2115197753906255 -2.220446049250313e-16 Q 3.250519775390625 -2.220446049250313e-16 3.2760197753906253 0.026249999999999885 Q 3.3015197753906254 0.05249999999999977 3.3015197753906254 0.09149999999999991 L 3.3015197753906254 1.0185 Q 3.3015197753906254 1.0574999999999999 3.2760197753906253 1.0837499999999998 Q 3.250519775390625 1.1099999999999999 3.2115197753906255 1.1099999999999999 M 3.6885197753906254 0.3074999999999999 Q 3.7230197753906253 0.3074999999999999 3.7485197753906254 0.33599999999999985 Q 3.7740197753906255 0.3644999999999998 3.7740197753906255 0.39149999999999985 Q 3.7740197753906255 0.4274999999999999 3.7380197753906255 0.45899999999999985 L 3.2865197753906252 0.8744999999999998 L 3.2790197753906254 0.6674999999999999 L 3.6225197753906255 0.33599999999999985 Q 3.6510197753906253 0.3074999999999999 3.6885197753906254 0.3074999999999999 M 3.7110197753906253 1.1084999999999998 Q 3.672019775390625 1.1084999999999998 3.6450197753906255 1.0784999999999998 L 3.367519775390625 0.7844999999999999 L 3.5040197753906255 0.6584999999999999 L 3.7740197753906255 0.9524999999999999 Q 3.8025197753906252 0.9824999999999999 3.8025197753906252 1.0199999999999998 Q 3.8025197753906252 1.059 3.7717697753906254 1.0837499999999998 Q 3.741019775390625 1.1084999999999998 3.7110197753906253 1.1084999999999998 M 4.786474365234375 0.05999999999999983 Q 4.822474365234376 0.05999999999999983 4.844974365234376 0.08399999999999985 Q 4.867474365234376 0.10799999999999987 4.867474365234376 0.1439999999999999 L 4.867474365234376 1.0185 Q 4.867474365234376 1.0574999999999999 4.841224365234376 1.0837499999999998 Q 4.8149743652343755 1.1099999999999999 4.775974365234376 1.1099999999999999 Q 4.756474365234375 1.1099999999999999 4.736224365234375 1.1032499999999998 Q 4.715974365234375 1.0964999999999998 4.705474365234376 1.0844999999999998 L 4.115974365234376 0.33599999999999985 L 4.154974365234375 0.31199999999999983 L 4.154974365234375 1.0259999999999998 Q 4.154974365234375 1.0619999999999998 4.131724365234375 1.0859999999999999 Q 4.108474365234375 1.1099999999999999 4.070974365234376 1.1099999999999999 Q 4.034974365234375 1.1099999999999999 4.012474365234375 1.0859999999999999 Q 3.9899743652343753 1.0619999999999998 3.9899743652343753 1.0259999999999998 L 3.9899743652343753 0.15149999999999986 Q 3.9899743652343753 0.11249999999999982 4.016224365234375 0.08624999999999994 Q 4.0424743652343755 0.05999999999999983 4.081474365234375 0.05999999999999983 Q 4.102474365234375 0.05999999999999983 4.124974365234375 0.06824999999999992 Q 4.147474365234375 0.07649999999999979 4.1579743652343755 0.09299999999999975 L 4.729474365234376 0.8219999999999998 L 4.703974365234376 0.8399999999999999 L 4.703974365234376 0.1439999999999999 Q 4.703974365234376 0.10799999999999987 4.726474365234376 0.08399999999999985 Q 4.748974365234376 0.05999999999999983 4.786474365234375 0.05999999999999983 M 5.863452392578126 0.7094999999999998 Q 5.863452392578126 0.8324999999999998 5.808702392578126 0.9262499999999999 Q 5.753952392578126 1.0199999999999998 5.6617023925781265 1.0724999999999998 Q 5.5694523925781265 1.1249999999999998 5.455452392578126 1.1249999999999998 Q 5.341452392578126 1.1249999999999998 5.249202392578126 1.0724999999999998 Q 5.156952392578126 1.0199999999999998 5.102202392578126 0.9262499999999999 Q 5.047452392578126 0.8324999999999998 5.047452392578126 0.7094999999999998 Q 5.047452392578126 0.5864999999999999 5.102202392578126 0.4927499999999999 Q 5.156952392578126 0.3989999999999999 5.249202392578126 0.3457499999999999 Q 5.341452392578126 0.29249999999999987 5.455452392578126 0.29249999999999987 Q 5.5694523925781265 0.29249999999999987 5.6617023925781265 0.3457499999999999 Q 5.753952392578126 0.3989999999999999 5.808702392578126 0.4927499999999999 Q 5.863452392578126 0.5864999999999999 5.863452392578126 0.7094999999999998 M 5.683452392578126 0.7094999999999998 Q 5.683452392578126 0.6329999999999998 5.652702392578126 0.5767499999999999 Q 5.621952392578126 0.5204999999999999 5.5702023925781265 0.4889999999999999 Q 5.518452392578126 0.4574999999999999 5.455452392578126 0.4574999999999999 Q 5.392452392578126 0.4574999999999999 5.340702392578126 0.4889999999999999 Q 5.288952392578126 0.5204999999999999 5.258202392578126 0.5767499999999999 Q 5.227452392578126 0.6329999999999998 5.227452392578126 0.7094999999999998 Q 5.227452392578126 0.7844999999999999 5.258202392578126 0.8407499999999999 Q 5.288952392578126 0.8969999999999999 5.340702392578126 0.9284999999999999 Q 5.392452392578126 0.9599999999999999 5.455452392578126 0.9599999999999999 Q 5.518452392578126 0.9599999999999999 5.5702023925781265 0.9284999999999999 Q 5.621952392578126 0.8969999999999999 5.652702392578126 0.8407499999999999 Q 5.683452392578126 0.7844999999999999 5.683452392578126 0.7094999999999998 M 6.952472900390626 0.3074999999999999 Q 6.986972900390626 0.3074999999999999 7.012472900390626 0.3337499999999999 Q 7.037972900390626 0.3599999999999999 7.037972900390626 0.40049999999999986 Q 7.037972900390626 0.4109999999999998 7.036472900390626 0.4192499999999999 Q 7.034972900390626 0.4274999999999999 7.031972900390626 0.43499999999999983 L 6.802472900390626 1.053 Q 6.7919729003906255 1.083 6.764972900390625 1.09875 Q 6.737972900390626 1.1144999999999998 6.707972900390626 1.1099999999999999 Q 6.656972900390626 1.107 6.631472900390626 1.053 L 6.482972900390626 0.6255 L 6.521972900390626 0.6269999999999999 L 6.382472900390626 1.053 Q 6.356972900390626 1.107 6.305972900390626 1.1099999999999999 Q 6.2774729003906256 1.1144999999999998 6.249722900390625 1.09875 Q 6.221972900390626 1.083 6.211472900390626 1.053 L 5.981972900390626 0.43499999999999983 Q 5.975972900390626 0.41849999999999987 5.975972900390626 0.40049999999999986 Q 5.975972900390626 0.3644999999999998 5.999972900390626 0.33599999999999985 Q 6.023972900390626 0.3074999999999999 6.0659729003906255 0.3074999999999999 Q 6.094472900390626 0.3074999999999999 6.116972900390626 0.32099999999999984 Q 6.139472900390626 0.3344999999999999 6.148472900390626 0.3644999999999998 L 6.329972900390626 0.8564999999999998 L 6.292472900390626 0.8534999999999999 L 6.428972900390626 0.4829999999999999 Q 6.452972900390626 0.4274999999999999 6.5114729003906255 0.4274999999999999 Q 6.544472900390626 0.4274999999999999 6.561722900390626 0.44174999999999986 Q 6.578972900390625 0.45599999999999985 6.589472900390626 0.4829999999999999 L 6.725972900390626 0.8534999999999999 L 6.680972900390626 0.8594999999999999 L 6.865472900390626 0.3644999999999998 Q 6.883472900390625 0.3074999999999999 6.952472900390626 0.3074999999999999" fill="#42ba96" fill-rule="nonzero"></path></g><g></g><g clip-path="url(&quot;#SvgjsClipPath1002&quot;)"><g clip-path="url(&quot;#bd8eeeaf4-1cb3-403c-9137-e561f487eb3141273770-321a-4d41-8783-473003710a40&quot;)"><path d=" M 6.601195003720086 -0.12485616078485062 C 6.601162841335297 -0.1417253316068363 6.605167058241564 -0.1587070707755842 6.605102733471986 -0.17510988701812558 C 6.605054489894801 -0.18956687898091396 6.594971582263357 -0.1925740619587133 6.5908065534331435 -0.20383089663496712 C 6.5867540929496915 -0.21483043223290554 6.5914819635137185 -0.22359468208798816 6.58321623062287 -0.23403137595211554 C 6.575609826620202 -0.2436157666193246 6.560686480077969 -0.24964621376731788 6.550410598137788 -0.2557088233000995 C 6.541598104705521 -0.2609030484435717 6.532769530080859 -0.264826859387866 6.523796224724647 -0.2693778368355506 C 6.512732364357129 -0.27500625417367797 6.505013392007697 -0.28105278251406496 6.494624941720755 -0.2879355328589748 C 6.473622904453345 -0.3018940078575296 6.450964504369287 -0.31265232556954814 6.43063787718245 -0.32792945834446385 C 6.388826776956366 -0.35931994589881633 6.356085469240863 -0.3992977901919108 6.316879522182711 -0.4336311359544842 C 6.3005731930945394 -0.4479273159933257 6.281758197992801 -0.4586052277433721 6.266272009716756 -0.4739627664802608 C 6.255610179159104 -0.4845120286911504 6.2439191522881945 -0.4956080514434573 6.228513369974122 -0.4988403711147811 C 6.222660272615249 -0.4999569711291061 6.2166849207343535 -0.5002922397414284 6.210743652378037 -0.49983740504324903 C 6.200001415858411 -0.5259693426845526 6.190465268768385 -0.5522620922498014 6.176555037347015 -0.5771718592691109 C 6.161165336225338 -0.6047350230335375 6.1431704819357265 -0.6306096615965258 6.128713489972938 -0.6587195859023707 C 6.1242107561024355 -0.6674677545650587 6.103369530758972 -0.6756370003015393 6.102710201870792 -0.6752188892992788 C 6.097419489572953 -0.6718900824735865 6.095650558409542 -0.671471971471326 6.0897005172235215 -0.6709252109299078 C 6.079070849050659 -0.669960339386229 6.06533751074563 -0.6755244319547771 6.0551098723826335 -0.6786924268565224 C 6.045943592717686 -0.6815227167179811 6.036520013974421 -0.6884697918324685 6.0295407764751445 -0.6946449697120132 C 6.020937338544007 -0.7022513737146818 6.020326253233012 -0.702685565909337 6.008120628205473 -0.7025247539853909 C 5.999870976507019 -0.7024121856386287 5.988726710177527 -0.7046474713814845 5.9807986823269665 -0.7028142154484947 C 5.962417879419885 -0.6985687806563075 5.927602097885471 -0.7122217129993631 5.917680002177974 -0.731068870485891 C 5.906744791349613 -0.7318890112980174 5.894523085129681 -0.7313904943337839 5.882413947256511 -0.7303291356357366 C 5.879085140430819 -0.7369063433251481 5.875563359296391 -0.7436282817461111 5.872829556589302 -0.7496265665093143 C 5.866718703479334 -0.7630061185816617 5.862891379689408 -0.7771897302737409 5.856603633463102 -0.7904727951917199 C 5.845362879979243 -0.8142247163586145 5.840860146108742 -0.8154308057882131 5.8110295342166705 -0.8236965386790631 C 5.804404082950075 -0.8255297946120521 5.797939443607426 -0.8265750721177048 5.791474804264778 -0.8276525120081457 C 5.787615318090062 -0.8322838954178042 5.783900562646899 -0.8356287834358911 5.780989866823466 -0.8356287834358911 C 5.770472766997367 -0.8356287834358911 5.714365486732442 -0.8531894455308464 5.714365486732442 -0.8531894455308464 C 5.714365486732442 -0.8531894455308464 5.708672744624737 -0.8568559573968262 5.70114674658404 -0.8621627508870606 C 5.7105220817501205 -0.8670996769522166 5.717662131173343 -0.8710395690889063 5.717662131173343 -0.8710395690889063 C 5.719720523799859 -0.8722295773261095 5.719479305913939 -0.8732266112545775 5.71716361420911 -0.8732909360241567 L 5.703124733248583 -0.8738055341807858 C 5.71130967846708 -0.8816368461096724 5.718586705274191 -0.8903649627693504 5.724818261788963 -0.8998249034753263 L 5.746656521060894 -0.8994871984350379 C 5.749189693438867 -0.8994668762497078 5.751542228134499 -0.9007963034084367 5.75283169894044 -0.9029768171846762 L 5.764828268466847 -0.9290122676716113 C 5.7657448964333415 -0.9311671474524941 5.7645227258113465 -0.9329843221930894 5.762207034106519 -0.933000403385484 L 5.741414052340238 -0.9334024331953499 C 5.744453397702827 -0.9418128968177513 5.746897738946814 -0.9506736338272024 5.748698832495014 -0.9599846442237032 L 5.769347083529743 -0.9596308579910202 C 5.771710978950264 -0.9596473076909469 5.773744906566099 -0.9613065644301813 5.774235766017716 -0.9636189937048929 L 5.777178624225936 -0.9893649827287243 C 5.77725338156093 -0.9904391399268482 5.776890620250569 -0.9914978837880417 5.7761728223162265 -0.9923004848538683 C 5.775455024381882 -0.9931030859196968 5.774443189615784 -0.9935813376714195 5.773367381628404 -0.9936264987133061 L 5.7524296691305725 -0.9939963661383837 C 5.7524296691305725 -0.9963763826127909 5.75259048105452 -0.9986920743176206 5.752558318669729 -1.0010720907920279 C 5.752462172772487 -1.0076618376216917 5.752091985426119 -1.01424473434622 5.751448716394499 -1.0208037138602588 L 5.772402510084726 -1.0204177652427893 C 5.774766445366739 -1.020385602858 5.776454970568176 -1.022138452829017 5.776101184335493 -1.024486306918635 L 5.7715502068878095 -1.0505860821751485 C 5.770973500204638 -1.052912333927007 5.768956767640258 -1.0545972814566014 5.766565037245469 -1.0547511110053627 L 5.744887589897482 -1.055137059622834 C 5.7420894624208145 -1.064834018636807 5.73861592486357 -1.0738555675702042 5.734531301995329 -1.0823946807317624 L 5.757012808963047 -1.0819444073447118 C 5.759296338283088 -1.0818318389979495 5.760277291019161 -1.0834560394298087 5.759296338283088 -1.0854822696715347 L 5.742684466539416 -1.1131901641675128 C 5.741091102239444 -1.1152407461305165 5.738711343284013 -1.1165297822313747 5.7361233400424005 -1.1167441076867304 L 5.710666812481673 -1.1173069494205432 C 5.701597019971091 -1.1272612075128299 5.696322388865646 -1.1333077358532178 5.684904742265447 -1.1404799476612304 L 5.705745967608911 -1.1441625407196048 C 5.708029496928951 -1.1443394338359454 5.700390930541493 -1.1527177350735576 5.698155644798636 -1.1533609827693434 C 5.698155644798636 -1.1533609827693434 5.420176153064753 -1.2050780975105306 5.127128584057086 -1.2594164466120459 L 5.1110956352396215 -1.292013023595997 L 5.17492188785398 -1.292013023595997 C 5.264687103800904 -1.2698209780913827 5.326487126173536 -1.2544473581620998 5.3396576227447525 -1.250925577027672 C 5.344224681384832 -1.249687325213284 5.348984714333648 -1.2490601587098924 5.353728666090069 -1.2490601587098924 C 5.4082439083079255 -1.2490601587098924 5.4222345456912695 -1.3211039006379153 5.4274930956043175 -1.348232872207686 C 5.441355083448505 -1.4194082297463972 5.446935257209448 -1.5374120195383232 5.44178927564316 -1.648838601640838 C 5.439184122475227 -1.7042704718251898 5.434086384486124 -1.752690942125474 5.427026741024873 -1.7888736250134318 C 5.41601112423454 -1.8452382043566722 5.399913850647497 -1.8738948892039344 5.373251233657172 -1.8846692881083489 C 5.325329280321121 -1.9039828001743206 4.911238576158938 -2.0506432748135097 4.773213701835676 -2.09583142544247 L 4.656528569820111 -2.701770754872801 L 4.651897186410453 -2.725860381079983 L 4.6287885129393445 -2.734093951586043 L 4.121603786004545 -2.914573173831176 L 4.109816271979268 -2.9187542838537843 L 4.0976267281441245 -2.9159722375695103 C 4.0976267281441245 -2.9159722375695103 3.9682052917519988 -2.8863989247557527 3.838799936552268 -2.856552231671287 C 3.8041449669418017 -2.848559879051146 3.7695864844857034 -2.840567526431006 3.7373919373116182 -2.8331058531598896 L 3.718464373863118 -2.928628135984098 C 3.707497000649968 -2.9820176947343286 3.68982377020825 -3.0266430036294767 3.668484027900552 -3.0715416927953334 C 3.646549281474252 -3.1161830828828765 3.622604385998622 -3.1577047216458567 3.587531305385895 -3.199547984256731 L 3.475155932932096 -3.3310117320829766 L 2.6798123194776027 -4.522370789448068 C 2.66930844649156 -4.537973065802591 2.6481887195924485 -4.542186961006459 2.6325014514525487 -4.531810449383727 L 2.6231743598636523 -4.525570946734604 L 2.1219396741148744 -5.276369657255923 L 2.1104416215527015 -5.351822611971611 C 2.1104416215527015 -5.351822611971611 2.1043629308275245 -5.411692891256884 2.0497672826476947 -5.416018732011045 C 2.04632590747524 -5.416147381550202 1.7664809974235782 -5.354749388987437 1.7664809974235782 -5.354749388987437 L 1.6605220207352436 -4.992552692682782 C 1.5910834319751546 -4.930495371231836 1.5304251742625425 -4.877089731289211 1.5304251742625425 -4.877089731289211 C 1.5304251742625425 -4.877089731289211 1.446256213268957 -4.794593214304667 1.5036821513102439 -4.728708569063795 L 1.0993366497392183 -3.7137601922679906 C 1.0924157621041237 -3.6962866885556593 1.1009190617944755 -3.6765055552100554 1.1183607003420857 -3.6695047507979197 L 1.1272857621211156 -3.6659347260863075 L 0.7314793737116481 -2.6945824618723937 L 0.6338986982609256 -2.6163635420648266 C 0.6204548214189993 -2.6055408995832283 0.6168043907454153 -2.58765861364038 0.6258902644483909 -2.576433941348916 C 0.629122584119716 -2.572397562057859 0.6682642064082883 -2.165430826126506 0.6822066002144476 -2.0194135991831033 L 0.4744697568603866 -1.9748847774423233 C 0.4744697568603866 -1.9748847774423233 0.4981895156424929 -1.4724440022639462 0.6913407174946078 -1.278713877485623 C 0.6913407174946078 -1.278713877485623 1.5031032283840358 -1.3101526086171598 1.567009886960366 -1.3123235695904372 C 1.630980870306276 -1.3145106117561092 1.660393371196087 -1.3211843065998883 1.7399148675876202 -1.3939195398008803 C 1.788930342006507 -1.4387056606199748 1.911565515208091 -1.6221599034581171 1.998725577987083 -1.7566951590317412 L 2.0977696419457184 -1.770283766605219 L 2.2208550885343534 -2.0412518584550354 L 2.095630843357231 -2.0156827625475446 L 2.033219735673603 -1.9314494767843793 L 1.9667400863141284 -1.9483668911835492 L 1.9995617999916044 -2.0010649586608102 L 1.884597355562267 -1.9759782985251597 L 1.335649771978568 -2.1603813317145866 C 1.3333501614661332 -2.1596094344796435 1.2659378029477697 -2.144943387015725 1.1698848407745377 -2.124246892403813 L 2.1120819031769544 -4.3838473981605715 L 3.0921984172459522 -3.163365301368773 L 3.2257688012758976 -2.4218776012439545 L 3.21470494090838 -2.4198835333870186 C 3.196236480194211 -2.416476467063715 3.1839644850488473 -2.3988220179072273 3.1872061019135316 -2.380323800096184 L 3.2606167451950996 -1.9725851669298886 C 3.164595945406657 -1.9515509672776887 3.074975460191284 -1.9262874140256967 3.048602304664062 -1.9013776470063877 C 3.02634593438987 -1.8803595285465828 3.0065017429748737 -1.8238180560870014 2.990066764347544 -1.759091256698543 L 2.989986358385571 -1.7587857140430456 C 2.987872699949807 -1.7503981075602493 2.9858303148601224 -1.7419927012069008 2.983859424083207 -1.7335704043682236 C 2.983537800235317 -1.732155259437508 2.9831679328102405 -1.730804439276358 2.9828463089623476 -1.7293892943456286 L 2.982862390154742 -1.7293892943456286 C 2.9785100651225327 -1.7104926886357084 2.9744464105727197 -1.691530754410525 2.970672846319601 -1.6725101168457703 L 2.9700939233933914 -1.6694546902907765 C 2.951391496638416 -1.5748168730482734 2.940520610579634 -1.4883483015422518 2.940520610579634 -1.4883483015422518 L 2.972409615098221 -1.40672016894702 L 3.3219021694111026 -1.3599882238481729 L 3.3197633708226144 -1.2845513503248798 C 3.241464045053074 -1.3065986650979422 3.1909369385490907 -1.3230175625328777 3.1905670711240135 -1.3230175625328777 C 3.1905670711240135 -1.3230175625328777 2.820217210275274 -1.310844099890129 2.813961626433756 -1.3109566682368916 C 2.7819118099912226 -1.3119054585881758 2.730323344789192 -1.267746504272473 2.730323344789192 -1.267746504272473 C 2.7264316962296875 -1.266090141455824 2.726672914115607 -1.2644981034087541 2.7309022677153996 -1.2640799924064932 L 2.7764924481542264 -1.2620537621647676 C 2.756390957660917 -1.250571790794989 2.737849342829888 -1.2352303332504948 2.721205308701427 -1.2167369619966495 L 2.6724149709760656 -1.2174123720772254 C 2.668298185723036 -1.217508859231593 2.66263760600012 -1.2149519496408439 2.6600646152169762 -1.2116874675847304 L 2.626760465767661 -1.1630901041681048 C 2.624605585986778 -1.1595200794564926 2.6263101923806103 -1.1564164093243257 2.6305234647880082 -1.1563360033623526 L 2.679217315359002 -1.1556766744741722 C 2.6711714506719346 -1.1401350138614 2.664338061334223 -1.1239950966373158 2.6587781198254046 -1.1074009349054386 L 2.610100350446806 -1.1080602637936199 C 2.6056482206123746 -1.1080468583527239 2.601709473908213 -1.1051722870348604 2.6003390666632553 -1.100936295562791 L 2.58914655675658 -1.0539148890008407 C 2.588692783550036 -1.0520456857250808 2.5891311921709983 -1.0500717209502168 2.590333557184511 -1.0485703384595206 C 2.591535922198024 -1.0470689559688262 2.593366384664414 -1.0462098016110541 2.595289572251336 -1.0462441602285937 L 2.644063828784302 -1.0455526689556232 C 2.641603406347921 -1.0297931004088685 2.639882718761694 -1.013792313976194 2.63935203941267 -0.9972608481944958 C 2.63935203941267 -0.9971161174629444 2.6394163641822486 -0.9969553055389984 2.6394163641822486 -0.9968105748074461 L 2.5907064324188602 -0.9974699036956265 C 2.5887119351172387 -0.9975408854370116 2.586775991233075 -0.9967886631405767 2.5853526630554273 -0.9953896653591272 C 2.5839293348777796 -0.9939906675776786 2.583143848515316 -0.992067979802643 2.5831804343781655 -0.9900725551940885 L 2.5856569380069407 -0.9428742555157967 C 2.5862064214498472 -0.9386019858663488 2.5897190129025205 -0.9353258188383755 2.5940191580521583 -0.9350748772043929 L 2.6427290898155467 -0.9344477107010016 C 2.6449965379431917 -0.9174981339170429 2.648357507153673 -0.901079236482107 2.6527155102926225 -0.8853035867429577 L 2.6039412537596562 -0.8859146720539544 C 2.5998083873142317 -0.8860433215931112 2.5974444520322186 -0.8828914078837604 2.598747028616185 -0.8789675969394661 L 2.6176102672951065 -0.8301290156369205 C 2.6193791984585184 -0.8263016918469948 2.6241553125997283 -0.8230854533680647 2.6283525038147317 -0.8230050474060917 L 2.677110679155304 -0.8223135561331221 C 2.6855427143615995 -0.8057256984497716 2.695571167386389 -0.7899990159404346 2.707053859394138 -0.7753564743407511 L 2.6604988074116327 -0.7739252482176262 C 2.6562855350042347 -0.7736357867545234 2.6554171506149236 -0.7711592831257468 2.6586655514786424 -0.7683933180338673 C 2.6586655514786424 -0.7683933180338673 2.7058316887721445 -0.6884376294476793 2.7567447438935995 -0.6732087402499474 L 2.6161307975947987 -0.533077229722986 L 2.5432186712774656 -0.5750973854502002 L 2.345275274091745 -0.533077229722986 L 2.1161022012756168 -0.25993817689989296 L 1.9077381914181648 -0.30192617024231794 C 1.9077381914181648 -0.30192617024231794 1.8518721290391587 -0.294448415778807 1.8002515014523381 -0.2884179686308137 L 1.8002515014523381 -0.20666118649642407 C 1.8002515014523381 0.008778548014673149 1.9765174512900734 0.18499625427522481 2.191925023416381 0.18499625427522481 L 5.452676242894338 0.18499625427522481 C 5.590926253911125 0.18499625427522481 5.712741286300581 0.1122127774970485 5.782469336523775 0.003262699023308002 C 5.964797895894293 0.005867852191241418 6.147046049302837 0.011544513106552579 6.328972578863487 0.023943112442825765 C 6.403122956995208 0.028992606854744807 6.475231023692809 0.03399385768948093 6.549590457325662 0.03399385768948093 C 6.557727540677353 0.03399385768948093 6.578649171982789 0.03783726267180132 6.5865932810257455 0.03442804988413606 C 6.604893677970855 0.026548265610758293 6.608849651299938 -0.004826140751199581 6.608479783874863 -0.021534499649237482 C 6.607691805447523 -0.05617338806731009 6.601259328489665 -0.09005646044283289 6.601195003720086 -0.12485616078485062 M 0.8753899644513518 -2.554804737578115 C 0.8766282162657397 -2.555673121967425 0.8779629552344959 -2.55638069443279 0.8792012070488837 -2.5573777283612578 L 0.970027781693856 -2.6314959441081904 L 0.9229581315547208 -2.4705232082377653 Z M 0.78210296737 -2.668225387537565 L 1.041637331427222 -2.8763160171243087 L 1.010134275526107 -2.7686524340421412 L 0.8279986904643248 -2.620126541085174 C 0.8251556602679938 -2.617747623342312 0.822534395818088 -2.615115593946 0.8201671497681313 -2.6122628380041912 L 0.7571288755811116 -2.6069560445139572 Z M 1.3653838967162728 -3.983280976802288 L 1.0672064273347126 -2.9637494601740086 L 0.822611491012119 -2.7676554001136733 L 1.1800481543679564 -3.644916607626503 L 1.1919964803171794 -3.640156574677687 C 1.2094869798230303 -3.63328449232146 1.2292483455091878 -3.641787476467464 1.23628408417204 -3.6592127876653446 Z M 2.665902088056234 -4.277711528355896 L 2.189159058324503 -4.835439442987074 L 2.142169814147342 -5.14378022596205 L 2.5759438978005726 -4.494051809641093 L 2.566600725019282 -4.487780144607181 C 2.5510029474213107 -4.477289622880615 2.546813037130136 -4.4561675879822245 2.557225389853203 -4.440517520159312 Z M 3.4048489597826967 -2.4071311478180633 C 3.3882692504238143 -2.3667834360998916 3.371223186485488 -2.3254386904532516 3.354289690893924 -2.2843834062697166 L 3.3323227820828345 -2.406439656545093 C 3.3289080049596778 -2.424926603543157 3.3112311081276493 -2.4372064129136812 3.2927148052148176 -2.4339545767323356 L 3.281634863654905 -2.43192834649061 L 3.166606094455989 -3.0707215519832074 L 3.275958202739594 -2.9346103395549075 C 3.2774215912475073 -2.9335489808568607 3.29099411762859 -2.9135600587103134 3.3002568844479074 -2.8936193801409504 C 3.310130736578221 -2.873919919457507 3.317319029578629 -2.850843408371187 3.317302948386234 -2.8491066395925646 Z" fill="#42ba96" transform="matrix(1,0,0,1,0,0)" fill-rule="nonzero"></path></g></g></g><defs><clipPath id="SvgjsClipPath1002"><path d=" M 0.4744697568603855 -5.170857174905179 h 6.13404144331048 v 4.920857174905179 h -6.13404144331048 Z"></path></clipPath><clipPath id="bd8eeeaf4-1cb3-403c-9137-e561f487eb3141273770-321a-4d41-8783-473003710a40"><path d=" M 0.45838856446573767 -5.432083843213297 L 6.624577057461904 -5.432083843213297 L 6.624577057461904 0.20107744666987237 L 0.45838856446573767 0.20107744666987237 Z"></path></clipPath></defs></svg>